<svg width="12" height="12" viewBox="0 0 12 12" fill="none" xmlns="http://www.w3.org/2000/svg">
<path d="M0.861946 10.1953L5.05728 5.99997L0.861946 1.80464C0.740507 1.6789 0.673311 1.5105 0.67483 1.33571C0.676349 1.16091 0.746462 0.993699 0.870067 0.870094C0.993672 0.746488 1.16088 0.676376 1.33568 0.674857C1.51048 0.673338 1.67888 0.740534 1.80461 0.861973L5.99995 5.05731L10.1953 0.861973C10.2568 0.798299 10.3303 0.747511 10.4117 0.712572C10.493 0.677633 10.5805 0.659242 10.669 0.658472C10.7575 0.657703 10.8453 0.674571 10.9272 0.708091C11.0092 0.741612 11.0836 0.791114 11.1462 0.853709C11.2088 0.916304 11.2583 0.990739 11.2918 1.07267C11.3253 1.1546 11.3422 1.24239 11.3414 1.33091C11.3407 1.41943 11.3223 1.50691 11.2873 1.58824C11.2524 1.66958 11.2016 1.74314 11.1379 1.80464L6.94261 5.99997L11.1379 10.1953C11.2016 10.2568 11.2524 10.3304 11.2873 10.4117C11.3223 10.493 11.3407 10.5805 11.3414 10.669C11.3422 10.7576 11.3253 10.8453 11.2918 10.9273C11.2583 11.0092 11.2088 11.0836 11.1462 11.1462C11.0836 11.2088 11.0092 11.2583 10.9272 11.2919C10.8453 11.3254 10.7575 11.3422 10.669 11.3415C10.5805 11.3407 10.493 11.3223 10.4117 11.2874C10.3303 11.2524 10.2568 11.2016 10.1953 11.138L5.99995 6.94264L1.80461 11.138C1.67888 11.2594 1.51048 11.3266 1.33568 11.3251C1.16088 11.3236 0.993672 11.2535 0.870067 11.1299C0.746462 11.0062 0.676349 10.839 0.67483 10.6642C0.673311 10.4894 0.740507 10.321 0.861946 10.1953Z" fill="white"/>
</svg>
